<svg width="496" height="227" viewBox="0 0 496 227" fill="none" xmlns="http://www.w3.org/2000/svg">
<path d="M1.23295 16V5.81818H2.46591V10.3523H7.89489V5.81818H9.12784V16H7.89489V11.446H2.46591V16H1.23295ZM11.6371 16V8.36364H12.8104V16H11.6371ZM12.2337 7.09091C12.005 7.09091 11.8078 7.01302 11.6421 6.85724C11.4797 6.70147 11.3985 6.5142 11.3985 6.29545C11.3985 6.0767 11.4797 5.88944 11.6421 5.73366C11.8078 5.57789 12.005 5.5 12.2337 5.5C12.4624 5.5 12.658 5.57789 12.8204 5.73366C12.9861 5.88944 13.069 6.0767 13.069 6.29545C13.069 6.5142 12.9861 6.70147 12.8204 6.85724C12.658 7.01302 12.4624 7.09091 12.2337 7.09091ZM20.5685 10.0739L19.5145 10.3722C19.4482 10.1965 19.3505 10.0258 19.2212 9.86009C19.0953 9.69105 18.9229 9.55185 18.7042 9.44247C18.4854 9.3331 18.2053 9.27841 17.864 9.27841C17.3966 9.27841 17.0072 9.38613 16.6956 9.60156C16.3874 9.81368 16.2333 10.0838 16.2333 10.4119C16.2333 10.7036 16.3393 10.9339 16.5515 11.103C16.7636 11.272 17.095 11.4129 17.5458 11.5256L18.6793 11.804C19.3621 11.9697 19.8708 12.2232 20.2056 12.5646C20.5403 12.9027 20.7077 13.3385 20.7077 13.8722C20.7077 14.3097 20.5818 14.7008 20.3299 15.0455C20.0813 15.3902 19.7333 15.6619 19.2858 15.8608C18.8384 16.0597 18.318 16.1591 17.7248 16.1591C16.9459 16.1591 16.3012 15.9901 15.7908 15.652C15.2804 15.3139 14.9572 14.8201 14.8213 14.1705L15.935 13.892C16.041 14.303 16.2416 14.6113 16.5365 14.8168C16.8348 15.0223 17.2243 15.125 17.7049 15.125C18.2517 15.125 18.6859 15.009 19.0074 14.777C19.3322 14.5417 19.4946 14.2599 19.4946 13.9318C19.4946 13.6667 19.4018 13.4446 19.2162 13.2656C19.0306 13.0833 18.7456 12.9474 18.3611 12.858L17.0884 12.5597C16.3891 12.3939 15.8753 12.1371 15.5472 11.7891C15.2224 11.4377 15.06 10.9986 15.06 10.4716C15.06 10.0407 15.181 9.65956 15.4229 9.32812C15.6682 8.99669 16.0013 8.73651 16.4222 8.54758C16.8464 8.35866 17.327 8.2642 17.864 8.2642C18.6196 8.2642 19.2129 8.42992 19.6438 8.76136C20.078 9.0928 20.3862 9.5303 20.5685 10.0739ZM25.9949 8.36364V9.35795H22.0375V8.36364H25.9949ZM23.1909 6.53409H24.3642V13.8125C24.3642 14.1439 24.4123 14.3925 24.5084 14.5582C24.6078 14.7206 24.7338 14.83 24.8862 14.8864C25.042 14.9394 25.2061 14.9659 25.3784 14.9659C25.5077 14.9659 25.6137 14.9593 25.6966 14.946C25.7795 14.9295 25.8457 14.9162 25.8955 14.9062L26.1341 15.9602C26.0545 15.9901 25.9435 16.0199 25.801 16.0497C25.6585 16.0829 25.4778 16.0994 25.2591 16.0994C24.9277 16.0994 24.6028 16.0282 24.2847 15.8857C23.9698 15.7431 23.708 15.526 23.4991 15.2344C23.2937 14.9427 23.1909 14.5748 23.1909 14.1307V6.53409ZM30.98 16.1591C30.2906 16.1591 29.6858 15.995 29.1654 15.6669C28.6484 15.3388 28.244 14.8797 27.9523 14.2898C27.664 13.6998 27.5198 13.0104 27.5198 12.2216C27.5198 11.4261 27.664 10.7318 27.9523 10.1385C28.244 9.54522 28.6484 9.08452 29.1654 8.75639C29.6858 8.42827 30.2906 8.2642 30.98 8.2642C31.6694 8.2642 32.2727 8.42827 32.7897 8.75639C33.3101 9.08452 33.7144 9.54522 34.0028 10.1385C34.2944 10.7318 34.4403 11.4261 34.4403 12.2216C34.4403 13.0104 34.2944 13.6998 34.0028 14.2898C33.7144 14.8797 33.3101 15.3388 32.7897 15.6669C32.2727 15.995 31.6694 16.1591 30.98 16.1591ZM30.98 15.1051C31.5037 15.1051 31.9346 14.9709 32.2727 14.7024C32.6107 14.4339 32.861 14.081 33.0234 13.6435C33.1858 13.206 33.267 12.732 33.267 12.2216C33.267 11.7112 33.1858 11.2356 33.0234 10.7947C32.861 10.3539 32.6107 9.99763 32.2727 9.72585C31.9346 9.45407 31.5037 9.31818 30.98 9.31818C30.4564 9.31818 30.0255 9.45407 29.6874 9.72585C29.3494 9.99763 29.0991 10.3539 28.9367 10.7947C28.7743 11.2356 28.6931 11.7112 28.6931 12.2216C28.6931 12.732 28.7743 13.206 28.9367 13.6435C29.0991 14.081 29.3494 14.4339 29.6874 14.7024C30.0255 14.9709 30.4564 15.1051 30.98 15.1051ZM36.4313 16V8.36364H37.5648V9.51705H37.6444C37.7836 9.1392 38.0355 8.83262 38.4 8.5973C38.7646 8.36198 39.1756 8.24432 39.633 8.24432C39.7192 8.24432 39.8269 8.24597 39.9561 8.24929C40.0854 8.2526 40.1832 8.25758 40.2495 8.2642V9.45739C40.2097 9.44744 40.1185 9.43253 39.976 9.41264C39.8368 9.38944 39.6893 9.37784 39.5336 9.37784C39.1623 9.37784 38.8309 9.45573 38.5392 9.61151C38.2509 9.76397 38.0222 9.97609 37.8532 10.2479C37.6874 10.5163 37.6046 10.8229 37.6046 11.1676V16H36.4313ZM42.8284 18.8636C42.6295 18.8636 42.4522 18.8471 42.2964 18.8139C42.1406 18.7841 42.0329 18.7543 41.9733 18.7244L42.2716 17.6903C42.5566 17.7633 42.8085 17.7898 43.0272 17.7699C43.246 17.75 43.4399 17.6522 43.6089 17.4766C43.7813 17.3042 43.9387 17.0241 44.0812 16.6364L44.3 16.0398L41.4761 8.36364H42.7488L44.8568 14.4489H44.9363L47.0443 8.36364H48.317L45.0755 17.1136C44.9297 17.508 44.7491 17.8345 44.5336 18.093C44.3182 18.3549 44.068 18.5488 43.7829 18.6747C43.5012 18.8007 43.183 18.8636 42.8284 18.8636ZM57.3054 16.1591C56.616 16.1591 56.0112 15.995 55.4908 15.6669C54.9738 15.3388 54.5694 14.8797 54.2777 14.2898C53.9894 13.6998 53.8452 13.0104 53.8452 12.2216C53.8452 11.4261 53.9894 10.7318 54.2777 10.1385C54.5694 9.54522 54.9738 9.08452 55.4908 8.75639C56.0112 8.42827 56.616 8.2642 57.3054 8.2642C57.9948 8.2642 58.598 8.42827 59.1151 8.75639C59.6355 9.08452 60.0398 9.54522 60.3282 10.1385C60.6198 10.7318 60.7657 11.4261 60.7657 12.2216C60.7657 13.0104 60.6198 13.6998 60.3282 14.2898C60.0398 14.8797 59.6355 15.3388 59.1151 15.6669C58.598 15.995 57.9948 16.1591 57.3054 16.1591ZM57.3054 15.1051C57.8291 15.1051 58.26 14.9709 58.598 14.7024C58.9361 14.4339 59.1864 14.081 59.3488 13.6435C59.5112 13.206 59.5924 12.732 59.5924 12.2216C59.5924 11.7112 59.5112 11.2356 59.3488 10.7947C59.1864 10.3539 58.9361 9.99763 58.598 9.72585C58.26 9.45407 57.8291 9.31818 57.3054 9.31818C56.7818 9.31818 56.3509 9.45407 56.0128 9.72585C55.6748 9.99763 55.4245 10.3539 55.2621 10.7947C55.0997 11.2356 55.0185 11.7112 55.0185 12.2216C55.0185 12.732 55.0997 13.206 55.2621 13.6435C55.4245 14.081 55.6748 14.4339 56.0128 14.7024C56.3509 14.9709 56.7818 15.1051 57.3054 15.1051ZM66.1572 8.36364V9.35795H62.0408V8.36364H66.1572ZM63.2737 16V7.30966C63.2737 6.87216 63.3765 6.50758 63.582 6.21591C63.7875 5.92424 64.0543 5.70549 64.3824 5.55966C64.7105 5.41383 65.0569 5.34091 65.4214 5.34091C65.7098 5.34091 65.9451 5.36411 66.1274 5.41051C66.3097 5.45691 66.4456 5.5 66.5351 5.53977L66.197 6.55398C66.1374 6.53409 66.0545 6.50923 65.9484 6.4794C65.8457 6.44957 65.7098 6.43466 65.5408 6.43466C65.153 6.43466 64.8729 6.53243 64.7006 6.72798C64.5315 6.92353 64.447 7.21023 64.447 7.58807V16H63.2737ZM72.2982 16V5.81818H73.4715V9.5767H73.5709C73.6571 9.44413 73.7764 9.27509 73.9289 9.0696C74.0846 8.8608 74.3067 8.67519 74.5951 8.51278C74.8867 8.34706 75.2811 8.2642 75.7783 8.2642C76.4213 8.2642 76.9881 8.42495 77.4786 8.74645C77.9691 9.06794 78.3519 9.52367 78.627 10.1136C78.9021 10.7036 79.0397 11.3996 79.0397 12.2017C79.0397 13.0104 78.9021 13.7114 78.627 14.3047C78.3519 14.8946 77.9708 15.352 77.4836 15.6768C76.9963 15.9983 76.4345 16.1591 75.7982 16.1591C75.3077 16.1591 74.9149 16.0779 74.6199 15.9155C74.3249 15.7498 74.0979 15.5625 73.9388 15.3537C73.7797 15.1416 73.6571 14.9659 73.5709 14.8267H73.4317V16H72.2982ZM73.4516 12.1818C73.4516 12.7585 73.5361 13.2673 73.7051 13.7081C73.8742 14.1456 74.1211 14.4886 74.4459 14.7372C74.7707 14.9825 75.1685 15.1051 75.6391 15.1051C76.1296 15.1051 76.539 14.9759 76.8671 14.7173C77.1985 14.4555 77.4471 14.1042 77.6128 13.6634C77.7819 13.2192 77.8664 12.7254 77.8664 12.1818C77.8664 11.6449 77.7835 11.161 77.6178 10.7301C77.4554 10.2959 77.2085 9.95289 76.877 9.70099C76.5489 9.44579 76.1363 9.31818 75.6391 9.31818C75.1618 9.31818 74.7608 9.43916 74.436 9.68111C74.1112 9.91974 73.8659 10.2545 73.7002 10.6854C73.5345 11.1129 73.4516 11.6117 73.4516 12.1818ZM81.0344 16V8.36364H82.2077V16H81.0344ZM81.631 7.09091C81.4023 7.09091 81.2051 7.01302 81.0394 6.85724C80.877 6.70147 80.7958 6.5142 80.7958 6.29545C80.7958 6.0767 80.877 5.88944 81.0394 5.73366C81.2051 5.57789 81.4023 5.5 81.631 5.5C81.8597 5.5 82.0552 5.57789 82.2177 5.73366C82.3834 5.88944 82.4662 6.0767 82.4662 6.29545C82.4662 6.5142 82.3834 6.70147 82.2177 6.85724C82.0552 7.01302 81.8597 7.09091 81.631 7.09091ZM87.4402 16.1591C86.8038 16.1591 86.242 15.9983 85.7548 15.6768C85.2676 15.352 84.8865 14.8946 84.6114 14.3047C84.3363 13.7114 84.1987 13.0104 84.1987 12.2017C84.1987 11.3996 84.3363 10.7036 84.6114 10.1136C84.8865 9.52367 85.2693 9.06794 85.7598 8.74645C86.2503 8.42495 86.8171 8.2642 87.4601 8.2642C87.9572 8.2642 88.35 8.34706 88.6384 8.51278C88.93 8.67519 89.1521 8.8608 89.3045 9.0696C89.4603 9.27509 89.5813 9.44413 89.6675 9.5767H89.7669V5.81818H90.9402V16H89.8067V14.8267H89.6675C89.5813 14.9659 89.4587 15.1416 89.2996 15.3537C89.1405 15.5625 88.9134 15.7498 88.6185 15.9155C88.3235 16.0779 87.9307 16.1591 87.4402 16.1591ZM87.5993 15.1051C88.0699 15.1051 88.4677 14.9825 88.7925 14.7372C89.1173 14.4886 89.3642 14.1456 89.5332 13.7081C89.7023 13.2673 89.7868 12.7585 89.7868 12.1818C89.7868 11.6117 89.7039 11.1129 89.5382 10.6854C89.3725 10.2545 89.1272 9.91974 88.8024 9.68111C88.4776 9.43916 88.0766 9.31818 87.5993 9.31818C87.1021 9.31818 86.6878 9.44579 86.3564 9.70099C86.0283 9.95289 85.7813 10.2959 85.6156 10.7301C85.4532 11.161 85.372 11.6449 85.372 12.1818C85.372 12.7254 85.4549 13.2192 85.6206 13.6634C85.7896 14.1042 86.0382 14.4555 86.3663 14.7173C86.6978 14.9759 87.1088 15.1051 87.5993 15.1051ZM98.8611 10.0739L97.8071 10.3722C97.7408 10.1965 97.643 10.0258 97.5138 9.86009C97.3878 9.69105 97.2155 9.55185 96.9967 9.44247C96.778 9.3331 96.4979 9.27841 96.1565 9.27841C95.6892 9.27841 95.2998 9.38613 94.9882 9.60156C94.68 9.81368 94.5259 10.0838 94.5259 10.4119C94.5259 10.7036 94.6319 10.9339 94.844 11.103C95.0562 11.272 95.3876 11.4129 95.8384 11.5256L96.9719 11.804C97.6546 11.9697 98.1634 12.2232 98.4982 12.5646C98.8329 12.9027 99.0003 13.3385 99.0003 13.8722C99.0003 14.3097 98.8743 14.7008 98.6224 15.0455C98.3739 15.3902 98.0259 15.6619 97.5784 15.8608C97.131 16.0597 96.6106 16.1591 96.0173 16.1591C95.2385 16.1591 94.5938 15.9901 94.0834 15.652C93.573 15.3139 93.2498 14.8201 93.1139 14.1705L94.2276 13.892C94.3336 14.303 94.5341 14.6113 94.8291 14.8168C95.1274 15.0223 95.5169 15.125 95.9974 15.125C96.5443 15.125 96.9785 15.009 97.3 14.777C97.6248 14.5417 97.7872 14.2599 97.7872 13.9318C97.7872 13.6667 97.6944 13.4446 97.5088 13.2656C97.3232 13.0833 97.0382 12.9474 96.6537 12.858L95.381 12.5597C94.6816 12.3939 94.1679 12.1371 93.8398 11.7891C93.515 11.4377 93.3526 10.9986 93.3526 10.4716C93.3526 10.0407 93.4735 9.65956 93.7155 9.32812C93.9608 8.99669 94.2938 8.73651 94.7148 8.54758C95.139 8.35866 95.6196 8.2642 96.1565 8.2642C96.9122 8.2642 97.5055 8.42992 97.9364 8.76136C98.3706 9.0928 98.6788 9.5303 98.8611 10.0739ZM105.522 10.9091C105.522 9.65625 105.684 8.5045 106.009 7.45383C106.337 6.39986 106.804 5.4304 107.411 4.54545H108.445C108.206 4.87358 107.982 5.27794 107.774 5.75852C107.568 6.2358 107.388 6.76113 107.232 7.33452C107.076 7.90459 106.953 8.49455 106.864 9.1044C106.778 9.71425 106.735 10.3158 106.735 10.9091C106.735 11.6979 106.811 12.4983 106.963 13.3104C107.116 14.1224 107.321 14.8764 107.58 15.5724C107.838 16.2685 108.127 16.8352 108.445 17.2727H107.411C106.804 16.3878 106.337 15.42 106.009 14.3693C105.684 13.3153 105.522 12.1619 105.522 10.9091ZM113.936 5.81818V16H112.703V7.1108H112.643L110.157 8.76136V7.50852L112.703 5.81818H113.936ZM117.064 16V15.1051L120.425 11.4261C120.819 10.9953 121.144 10.6207 121.399 10.3026C121.655 9.98106 121.843 9.67945 121.966 9.39773C122.092 9.11269 122.155 8.81439 122.155 8.50284C122.155 8.14489 122.069 7.83499 121.897 7.57315C121.727 7.31132 121.495 7.10914 121.2 6.96662C120.906 6.8241 120.574 6.75284 120.206 6.75284C119.815 6.75284 119.474 6.83404 119.182 6.99645C118.894 7.15554 118.67 7.37926 118.511 7.66761C118.355 7.95597 118.277 8.29403 118.277 8.68182H117.104C117.104 8.08523 117.241 7.56155 117.517 7.1108C117.792 6.66004 118.166 6.30871 118.64 6.05682C119.117 5.80492 119.653 5.67898 120.246 5.67898C120.843 5.67898 121.371 5.80492 121.832 6.05682C122.293 6.30871 122.654 6.64844 122.916 7.07599C123.178 7.50355 123.308 7.97917 123.308 8.50284C123.308 8.87737 123.241 9.24361 123.105 9.60156C122.972 9.9562 122.74 10.3523 122.409 10.7898C122.08 11.224 121.625 11.7543 121.041 12.3807L118.754 14.8267V14.9062H123.487V16H117.064ZM129.898 18.8636V8.36364H131.032V9.5767H131.171C131.257 9.44413 131.376 9.27509 131.529 9.0696C131.685 8.8608 131.907 8.67519 132.195 8.51278C132.487 8.34706 132.881 8.2642 133.378 8.2642C134.021 8.2642 134.588 8.42495 135.078 8.74645C135.569 9.06794 135.952 9.52367 136.227 10.1136C136.502 10.7036 136.64 11.3996 136.64 12.2017C136.64 13.0104 136.502 13.7114 136.227 14.3047C135.952 14.8946 135.571 15.352 135.083 15.6768C134.596 15.9983 134.034 16.1591 133.398 16.1591C132.908 16.1591 132.515 16.0779 132.22 15.9155C131.925 15.7498 131.698 15.5625 131.539 15.3537C131.38 15.1416 131.257 14.9659 131.171 14.8267H131.071V18.8636H129.898ZM131.051 12.1818C131.051 12.7585 131.136 13.2673 131.305 13.7081C131.474 14.1456 131.721 14.4886 132.046 14.7372C132.371 14.9825 132.768 15.1051 133.239 15.1051C133.73 15.1051 134.139 14.9759 134.467 14.7173C134.798 14.4555 135.047 14.1042 135.213 13.6634C135.382 13.2192 135.466 12.7254 135.466 12.1818C135.466 11.6449 135.383 11.161 135.218 10.7301C135.055 10.2959 134.808 9.95289 134.477 9.70099C134.149 9.44579 133.736 9.31818 133.239 9.31818C132.762 9.31818 132.361 9.43916 132.036 9.68111C131.711 9.91974 131.466 10.2545 131.3 10.6854C131.134 11.1129 131.051 11.6117 131.051 12.1818ZM141.831 16.1591C141.095 16.1591 140.461 15.9967 139.927 15.6719C139.397 15.3438 138.987 14.8864 138.699 14.2997C138.414 13.7098 138.271 13.0237 138.271 12.2415C138.271 11.4593 138.414 10.7699 138.699 10.1733C138.987 9.57339 139.388 9.10606 139.902 8.77131C140.419 8.43324 141.022 8.2642 141.712 8.2642C142.109 8.2642 142.502 8.33049 142.89 8.46307C143.278 8.59564 143.631 8.81108 143.949 9.10938C144.267 9.40436 144.521 9.79545 144.71 10.2827C144.899 10.7699 144.993 11.3698 144.993 12.0824V12.5795H139.107V11.5653H143.8C143.8 11.1345 143.714 10.75 143.541 10.4119C143.372 10.0739 143.13 9.80705 142.815 9.61151C142.504 9.41596 142.136 9.31818 141.712 9.31818C141.244 9.31818 140.84 9.43419 140.499 9.66619C140.161 9.89489 139.9 10.1932 139.718 10.5611C139.536 10.929 139.445 11.3234 139.445 11.7443V12.4205C139.445 12.9972 139.544 13.486 139.743 13.8871C139.945 14.2848 140.225 14.5881 140.583 14.7969C140.941 15.0024 141.357 15.1051 141.831 15.1051C142.139 15.1051 142.418 15.062 142.666 14.9759C142.918 14.8864 143.135 14.7538 143.318 14.5781C143.5 14.3991 143.641 14.1771 143.74 13.9119L144.874 14.2301C144.754 14.6146 144.554 14.9527 144.272 15.2443C143.99 15.5327 143.642 15.758 143.228 15.9205C142.814 16.0795 142.348 16.1591 141.831 16.1591ZM150.08 16.1591C149.391 16.1591 148.786 15.995 148.265 15.6669C147.748 15.3388 147.344 14.8797 147.052 14.2898C146.764 13.6998 146.62 13.0104 146.62 12.2216C146.62 11.4261 146.764 10.7318 147.052 10.1385C147.344 9.54522 147.748 9.08452 148.265 8.75639C148.786 8.42827 149.391 8.2642 150.08 8.2642C150.769 8.2642 151.373 8.42827 151.89 8.75639C152.41 9.08452 152.814 9.54522 153.103 10.1385C153.394 10.7318 153.54 11.4261 153.54 12.2216C153.54 13.0104 153.394 13.6998 153.103 14.2898C152.814 14.8797 152.41 15.3388 151.89 15.6669C151.373 15.995 150.769 16.1591 150.08 16.1591ZM150.08 15.1051C150.604 15.1051 151.035 14.9709 151.373 14.7024C151.711 14.4339 151.961 14.081 152.123 13.6435C152.286 13.206 152.367 12.732 152.367 12.2216C152.367 11.7112 152.286 11.2356 152.123 10.7947C151.961 10.3539 151.711 9.99763 151.373 9.72585C151.035 9.45407 150.604 9.31818 150.08 9.31818C149.556 9.31818 149.125 9.45407 148.787 9.72585C148.449 9.99763 148.199 10.3539 148.037 10.7947C147.874 11.2356 147.793 11.7112 147.793 12.2216C147.793 12.732 147.874 13.206 148.037 13.6435C148.199 14.081 148.449 14.4339 148.787 14.7024C149.125 14.9709 149.556 15.1051 150.08 15.1051ZM155.531 18.8636V8.36364H156.665V9.5767H156.804C156.89 9.44413 157.01 9.27509 157.162 9.0696C157.318 8.8608 157.54 8.67519 157.828 8.51278C158.12 8.34706 158.514 8.2642 159.011 8.2642C159.654 8.2642 160.221 8.42495 160.712 8.74645C161.202 9.06794 161.585 9.52367 161.86 10.1136C162.135 10.7036 162.273 11.3996 162.273 12.2017C162.273 13.0104 162.135 13.7114 161.86 14.3047C161.585 14.8946 161.204 15.352 160.717 15.6768C160.229 15.9983 159.668 16.1591 159.031 16.1591C158.541 16.1591 158.148 16.0779 157.853 15.9155C157.558 15.7498 157.331 15.5625 157.172 15.3537C157.013 15.1416 156.89 14.9659 156.804 14.8267H156.705V18.8636H155.531ZM156.685 12.1818C156.685 12.7585 156.769 13.2673 156.938 13.7081C157.107 14.1456 157.354 14.4886 157.679 14.7372C158.004 14.9825 158.402 15.1051 158.872 15.1051C159.363 15.1051 159.772 14.9759 160.1 14.7173C160.432 14.4555 160.68 14.1042 160.846 13.6634C161.015 13.2192 161.099 12.7254 161.099 12.1818C161.099 11.6449 161.017 11.161 160.851 10.7301C160.688 10.2959 160.442 9.95289 160.11 9.70099C159.782 9.44579 159.369 9.31818 158.872 9.31818C158.395 9.31818 157.994 9.43916 157.669 9.68111C157.344 9.91974 157.099 10.2545 156.933 10.6854C156.768 11.1129 156.685 11.6117 156.685 12.1818ZM165.436 5.81818V16H164.263V5.81818H165.436ZM170.987 16.1591C170.251 16.1591 169.616 15.9967 169.082 15.6719C168.552 15.3438 168.143 14.8864 167.854 14.2997C167.569 13.7098 167.427 13.0237 167.427 12.2415C167.427 11.4593 167.569 10.7699 167.854 10.1733C168.143 9.57339 168.544 9.10606 169.058 8.77131C169.575 8.43324 170.178 8.2642 170.867 8.2642C171.265 8.2642 171.658 8.33049 172.045 8.46307C172.433 8.59564 172.786 8.81108 173.104 9.10938C173.423 9.40436 173.676 9.79545 173.865 10.2827C174.054 10.7699 174.148 11.3698 174.148 12.0824V12.5795H168.262V11.5653H172.955C172.955 11.1345 172.869 10.75 172.697 10.4119C172.528 10.0739 172.286 9.80705 171.971 9.61151C171.659 9.41596 171.291 9.31818 170.867 9.31818C170.4 9.31818 169.996 9.43419 169.654 9.66619C169.316 9.89489 169.056 10.1932 168.874 10.5611C168.691 10.929 168.6 11.3234 168.6 11.7443V12.4205C168.6 12.9972 168.7 13.486 168.898 13.8871C169.101 14.2848 169.381 14.5881 169.739 14.7969C170.097 15.0024 170.513 15.1051 170.987 15.1051C171.295 15.1051 171.573 15.062 171.822 14.9759C172.074 14.8864 172.291 14.7538 172.473 14.5781C172.655 14.3991 172.796 14.1771 172.896 13.9119L174.029 14.2301C173.91 14.6146 173.709 14.9527 173.428 15.2443C173.146 15.5327 172.798 15.758 172.384 15.9205C171.969 16.0795 171.504 16.1591 170.987 16.1591ZM182.518 16.179C182.034 16.179 181.595 16.0878 181.2 15.9055C180.806 15.7199 180.493 15.4531 180.261 15.1051C180.029 14.7538 179.913 14.3295 179.913 13.8324C179.913 13.3949 179.999 13.0402 180.171 12.7685C180.344 12.4934 180.574 12.2779 180.862 12.1222C181.151 11.9664 181.469 11.8504 181.817 11.7741C182.168 11.6946 182.521 11.6316 182.876 11.5852C183.34 11.5256 183.716 11.4808 184.004 11.451C184.296 11.4179 184.508 11.3632 184.641 11.2869C184.777 11.2107 184.845 11.0781 184.845 10.8892V10.8494C184.845 10.3589 184.71 9.97775 184.442 9.70597C184.177 9.43419 183.774 9.2983 183.234 9.2983C182.674 9.2983 182.235 9.42093 181.916 9.66619C181.598 9.91146 181.374 10.1733 181.245 10.4517L180.132 10.054C180.33 9.58996 180.596 9.22869 180.927 8.97017C181.262 8.70833 181.626 8.52604 182.021 8.4233C182.418 8.31723 182.81 8.2642 183.194 8.2642C183.439 8.2642 183.721 8.29403 184.039 8.35369C184.361 8.41004 184.671 8.5277 184.969 8.70668C185.27 8.88565 185.521 9.15578 185.72 9.51705C185.918 9.87831 186.018 10.3622 186.018 10.9688V16H184.845V14.9659H184.785C184.705 15.1316 184.573 15.3089 184.387 15.4979C184.202 15.6868 183.955 15.8475 183.646 15.9801C183.338 16.1127 182.962 16.179 182.518 16.179ZM182.697 15.125C183.161 15.125 183.552 15.0339 183.87 14.8516C184.192 14.6693 184.434 14.4339 184.596 14.1456C184.762 13.8572 184.845 13.554 184.845 13.2358V12.1619C184.795 12.2216 184.686 12.2763 184.516 12.326C184.351 12.3724 184.159 12.4138 183.94 12.4503C183.724 12.4834 183.514 12.5133 183.308 12.5398C183.106 12.563 182.942 12.5829 182.816 12.5994C182.511 12.6392 182.226 12.7038 181.961 12.7933C181.699 12.8795 181.487 13.0104 181.325 13.1861C181.166 13.3584 181.086 13.5937 181.086 13.892C181.086 14.2997 181.237 14.608 181.538 14.8168C181.843 15.0223 182.23 15.125 182.697 15.125ZM188.359 16V8.36364H189.493V9.51705H189.572C189.712 9.1392 189.964 8.83262 190.328 8.5973C190.693 8.36198 191.104 8.24432 191.561 8.24432C191.647 8.24432 191.755 8.24597 191.884 8.24929C192.014 8.2526 192.111 8.25758 192.178 8.2642V9.45739C192.138 9.44744 192.047 9.43253 191.904 9.41264C191.765 9.38944 191.617 9.37784 191.462 9.37784C191.09 9.37784 190.759 9.45573 190.467 9.61151C190.179 9.76397 189.95 9.97609 189.781 10.2479C189.616 10.5163 189.533 10.8229 189.533 11.1676V16H188.359ZM196.738 16.1591C196.002 16.1591 195.367 15.9967 194.834 15.6719C194.303 15.3438 193.894 14.8864 193.606 14.2997C193.321 13.7098 193.178 13.0237 193.178 12.2415C193.178 11.4593 193.321 10.7699 193.606 10.1733C193.894 9.57339 194.295 9.10606 194.809 8.77131C195.326 8.43324 195.929 8.2642 196.618 8.2642C197.016 8.2642 197.409 8.33049 197.797 8.46307C198.184 8.59564 198.537 8.81108 198.856 9.10938C199.174 9.40436 199.427 9.79545 199.616 10.2827C199.805 10.7699 199.9 11.3698 199.9 12.0824V12.5795H194.013V11.5653H198.706C198.706 11.1345 198.62 10.75 198.448 10.4119C198.279 10.0739 198.037 9.80705 197.722 9.61151C197.411 9.41596 197.043 9.31818 196.618 9.31818C196.151 9.31818 195.747 9.43419 195.405 9.66619C195.067 9.89489 194.807 10.1932 194.625 10.5611C194.442 10.929 194.351 11.3234 194.351 11.7443V12.4205C194.351 12.9972 194.451 13.486 194.65 13.8871C194.852 14.2848 195.132 14.5881 195.49 14.7969C195.848 15.0024 196.264 15.1051 196.738 15.1051C197.046 15.1051 197.324 15.062 197.573 14.9759C197.825 14.8864 198.042 14.7538 198.224 14.5781C198.406 14.3991 198.547 14.1771 198.647 13.9119L199.78 14.2301C199.661 14.6146 199.46 14.9527 199.179 15.2443C198.897 15.5327 198.549 15.758 198.135 15.9205C197.72 16.0795 197.255 16.1591 196.738 16.1591ZM206.181 16V5.81818H207.354V9.5767H207.454C207.54 9.44413 207.659 9.27509 207.812 9.0696C207.967 8.8608 208.19 8.67519 208.478 8.51278C208.77 8.34706 209.164 8.2642 209.661 8.2642C210.304 8.2642 210.871 8.42495 211.361 8.74645C211.852 9.06794 212.235 9.52367 212.51 10.1136C212.785 10.7036 212.922 11.3996 212.922 12.2017C212.922 13.0104 212.785 13.7114 212.51 14.3047C212.235 14.8946 211.854 15.352 211.366 15.6768C210.879 15.9983 210.317 16.1591 209.681 16.1591C209.19 16.1591 208.798 16.0779 208.503 15.9155C208.208 15.7498 207.981 15.5625 207.822 15.3537C207.663 15.1416 207.54 14.9659 207.454 14.8267H207.315V16H206.181ZM207.334 12.1818C207.334 12.7585 207.419 13.2673 207.588 13.7081C207.757 14.1456 208.004 14.4886 208.329 14.7372C208.654 14.9825 209.051 15.1051 209.522 15.1051C210.012 15.1051 210.422 14.9759 210.75 14.7173C211.081 14.4555 211.33 14.1042 211.496 13.6634C211.665 13.2192 211.749 12.7254 211.749 12.1818C211.749 11.6449 211.666 11.161 211.501 10.7301C211.338 10.2959 211.091 9.95289 210.76 9.70099C210.432 9.44579 210.019 9.31818 209.522 9.31818C209.045 9.31818 208.644 9.43916 208.319 9.68111C207.994 9.91974 207.749 10.2545 207.583 10.6854C207.417 11.1129 207.334 11.6117 207.334 12.1818ZM214.917 16V8.36364H216.091V16H214.917ZM215.514 7.09091C215.285 7.09091 215.088 7.01302 214.922 6.85724C214.76 6.70147 214.679 6.5142 214.679 6.29545C214.679 6.0767 214.76 5.88944 214.922 5.73366C215.088 5.57789 215.285 5.5 215.514 5.5C215.743 5.5 215.938 5.57789 216.1 5.73366C216.266 5.88944 216.349 6.0767 216.349 6.29545C216.349 6.5142 216.266 6.70147 216.1 6.85724C215.938 7.01302 215.743 7.09091 215.514 7.09091ZM221.323 16.1591C220.687 16.1591 220.125 15.9983 219.638 15.6768C219.15 15.352 218.769 14.8946 218.494 14.3047C218.219 13.7114 218.082 13.0104 218.082 12.2017C218.082 11.3996 218.219 10.7036 218.494 10.1136C218.769 9.52367 219.152 9.06794 219.643 8.74645C220.133 8.42495 220.7 8.2642 221.343 8.2642C221.84 8.2642 222.233 8.34706 222.521 8.51278C222.813 8.67519 223.035 8.8608 223.187 9.0696C223.343 9.27509 223.464 9.44413 223.55 9.5767H223.65V5.81818H224.823V16H223.689V14.8267H223.55C223.464 14.9659 223.341 15.1416 223.182 15.3537C223.023 15.5625 222.796 15.7498 222.501 15.9155C222.206 16.0779 221.814 16.1591 221.323 16.1591ZM221.482 15.1051C221.953 15.1051 222.35 14.9825 222.675 14.7372C223 14.4886 223.247 14.1456 223.416 13.7081C223.585 13.2673 223.67 12.7585 223.67 12.1818C223.67 11.6117 223.587 11.1129 223.421 10.6854C223.255 10.2545 223.01 9.91974 222.685 9.68111C222.36 9.43916 221.959 9.31818 221.482 9.31818C220.985 9.31818 220.571 9.44579 220.239 9.70099C219.911 9.95289 219.664 10.2959 219.498 10.7301C219.336 11.161 219.255 11.6449 219.255 12.1818C219.255 12.7254 219.338 13.2192 219.503 13.6634C219.672 14.1042 219.921 14.4555 220.249 14.7173C220.581 14.9759 220.992 15.1051 221.482 15.1051ZM230.218 16.1591C229.582 16.1591 229.02 15.9983 228.533 15.6768C228.046 15.352 227.665 14.8946 227.389 14.3047C227.114 13.7114 226.977 13.0104 226.977 12.2017C226.977 11.3996 227.114 10.7036 227.389 10.1136C227.665 9.52367 228.047 9.06794 228.538 8.74645C229.028 8.42495 229.595 8.2642 230.238 8.2642C230.735 8.2642 231.128 8.34706 231.416 8.51278C231.708 8.67519 231.93 8.8608 232.083 9.0696C232.238 9.27509 232.359 9.44413 232.446 9.5767H232.545V5.81818H233.718V16H232.585V14.8267H232.446C232.359 14.9659 232.237 15.1416 232.078 15.3537C231.919 15.5625 231.692 15.7498 231.397 15.9155C231.102 16.0779 230.709 16.1591 230.218 16.1591ZM230.377 15.1051C230.848 15.1051 231.246 14.9825 231.571 14.7372C231.895 14.4886 232.142 14.1456 232.311 13.7081C232.48 13.2673 232.565 12.7585 232.565 12.1818C232.565 11.6117 232.482 11.1129 232.316 10.6854C232.151 10.2545 231.905 9.91974 231.581 9.68111C231.256 9.43916 230.855 9.31818 230.377 9.31818C229.88 9.31818 229.466 9.44579 229.135 9.70099C228.806 9.95289 228.559 10.2959 228.394 10.7301C228.231 11.161 228.15 11.6449 228.15 12.1818C228.15 12.7254 228.233 13.2192 228.399 13.6634C228.568 14.1042 228.816 14.4555 229.144 14.7173C229.476 14.9759 229.887 15.1051 230.377 15.1051ZM236.23 16V8.36364H237.403V16H236.23ZM236.827 7.09091C236.598 7.09091 236.401 7.01302 236.235 6.85724C236.073 6.70147 235.991 6.5142 235.991 6.29545C235.991 6.0767 236.073 5.88944 236.235 5.73366C236.401 5.57789 236.598 5.5 236.827 5.5C237.055 5.5 237.251 5.57789 237.413 5.73366C237.579 5.88944 237.662 6.0767 237.662 6.29545C237.662 6.5142 237.579 6.70147 237.413 6.85724C237.251 7.01302 237.055 7.09091 236.827 7.09091ZM240.926 11.4062V16H239.752V8.36364H240.886V9.55682H240.985C241.164 9.16903 241.436 8.85748 241.801 8.62216C242.165 8.38352 242.636 8.2642 243.213 8.2642C243.73 8.2642 244.182 8.37027 244.57 8.58239C244.958 8.79119 245.259 9.10938 245.475 9.53693C245.69 9.96117 245.798 10.4981 245.798 11.1477V16H244.625V11.2273C244.625 10.6274 244.469 10.16 244.157 9.82528C243.846 9.48722 243.418 9.31818 242.875 9.31818C242.5 9.31818 242.165 9.39938 241.87 9.56179C241.579 9.72419 241.348 9.96117 241.179 10.2727C241.01 10.5843 240.926 10.9621 240.926 11.4062ZM251.224 19.0227C250.657 19.0227 250.17 18.9498 249.763 18.804C249.355 18.6615 249.015 18.4725 248.743 18.2372C248.475 18.0052 248.261 17.7566 248.102 17.4915L249.037 16.8352C249.143 16.9744 249.277 17.1335 249.439 17.3125C249.602 17.4948 249.824 17.6522 250.106 17.7848C250.391 17.9207 250.764 17.9886 251.224 17.9886C251.841 17.9886 252.349 17.8395 252.75 17.5412C253.152 17.2429 253.352 16.7756 253.352 16.1392V14.5881H253.253C253.166 14.7273 253.044 14.8996 252.885 15.1051C252.729 15.3073 252.504 15.4879 252.209 15.647C251.917 15.8028 251.523 15.8807 251.025 15.8807C250.409 15.8807 249.855 15.7348 249.365 15.4432C248.878 15.1515 248.491 14.7273 248.206 14.1705C247.925 13.6136 247.784 12.9375 247.784 12.142C247.784 11.3598 247.921 10.6787 248.197 10.0987C248.472 9.51539 248.854 9.06463 249.345 8.74645C249.835 8.42495 250.402 8.2642 251.045 8.2642C251.542 8.2642 251.937 8.34706 252.228 8.51278C252.523 8.67519 252.749 8.8608 252.905 9.0696C253.064 9.27509 253.186 9.44413 253.273 9.5767H253.392V8.36364H254.525V16.2188C254.525 16.875 254.376 17.4086 254.078 17.8196C253.783 18.2339 253.385 18.5372 252.885 18.7294C252.388 18.925 251.834 19.0227 251.224 19.0227ZM251.184 14.8267C251.655 14.8267 252.053 14.719 252.378 14.5036C252.702 14.2881 252.949 13.9782 253.118 13.5739C253.287 13.1695 253.372 12.6856 253.372 12.1222C253.372 11.572 253.289 11.0864 253.123 10.6655C252.958 10.2446 252.712 9.91477 252.388 9.67614C252.063 9.4375 251.662 9.31818 251.184 9.31818C250.687 9.31818 250.273 9.44413 249.942 9.69602C249.613 9.94792 249.366 10.286 249.201 10.7102C249.038 11.1345 248.957 11.6051 248.957 12.1222C248.957 12.6525 249.04 13.1214 249.206 13.5291C249.375 13.9335 249.623 14.2517 249.951 14.4837C250.283 14.7124 250.694 14.8267 251.184 14.8267ZM259.379 11.7045C259.379 12.9574 259.215 14.1108 258.887 15.1648C258.562 16.2154 258.096 17.1832 257.49 18.0682H256.455C256.694 17.7401 256.916 17.3357 257.122 16.8551C257.33 16.3778 257.513 15.8542 257.669 15.2841C257.824 14.7107 257.945 14.1191 258.031 13.5092C258.121 12.8961 258.166 12.2945 258.166 11.7045C258.166 10.9157 258.089 10.1153 257.937 9.30327C257.785 8.49124 257.579 7.73722 257.321 7.04119C257.062 6.34517 256.774 5.77841 256.455 5.34091H257.49C258.096 6.22585 258.562 7.19531 258.887 8.24929C259.215 9.29995 259.379 10.4517 259.379 11.7045Z" fill="#7780A1"/>
<path d="M3.97159 181.273V190H2.91477V182.381H2.86364L0.732955 183.795V182.722L2.91477 181.273H3.97159ZM6.68153 190V189.233L9.56222 186.08C9.90028 185.71 10.1787 185.389 10.3974 185.116C10.6162 184.841 10.7781 184.582 10.8832 184.341C10.9912 184.097 11.0452 183.841 11.0452 183.574C11.0452 183.267 10.9713 183.001 10.8236 182.777C10.6787 182.553 10.4798 182.379 10.227 182.257C9.97415 182.135 9.69006 182.074 9.37472 182.074C9.03949 182.074 8.74687 182.143 8.49687 182.283C8.24972 182.419 8.05795 182.611 7.92159 182.858C7.78807 183.105 7.72131 183.395 7.72131 183.727H6.71562C6.71562 183.216 6.83352 182.767 7.06932 182.381C7.30511 181.994 7.62614 181.693 8.03239 181.477C8.44148 181.261 8.90028 181.153 9.40881 181.153C9.92017 181.153 10.3733 181.261 10.7682 181.477C11.1631 181.693 11.4727 181.984 11.6972 182.351C11.9216 182.717 12.0338 183.125 12.0338 183.574C12.0338 183.895 11.9756 184.209 11.8591 184.516C11.7455 184.82 11.5466 185.159 11.2625 185.534C10.9812 185.906 10.5906 186.361 10.0906 186.898L8.1304 188.994V189.062H12.1872V190H6.68153ZM14.8972 188.884C14.6869 188.884 14.5065 188.808 14.356 188.658C14.2054 188.507 14.1301 188.327 14.1301 188.116C14.1301 187.906 14.2054 187.726 14.356 187.575C14.5065 187.425 14.6869 187.349 14.8972 187.349C15.1074 187.349 15.2878 187.425 15.4384 187.575C15.5889 187.726 15.6642 187.906 15.6642 188.116C15.6642 188.256 15.6287 188.384 15.5577 188.5C15.4895 188.616 15.3972 188.71 15.2807 188.781C15.167 188.849 15.0392 188.884 14.8972 188.884ZM14.8972 184.469C14.6869 184.469 14.5065 184.393 14.356 184.243C14.2054 184.092 14.1301 183.912 14.1301 183.702C14.1301 183.491 14.2054 183.311 14.356 183.161C14.5065 183.01 14.6869 182.935 14.8972 182.935C15.1074 182.935 15.2878 183.01 15.4384 183.161C15.5889 183.311 15.6642 183.491 15.6642 183.702C15.6642 183.841 15.6287 183.969 15.5577 184.085C15.4895 184.202 15.3972 184.295 15.2807 184.366C15.167 184.435 15.0392 184.469 14.8972 184.469ZM20.4984 190.119C19.8564 190.119 19.3095 189.945 18.8578 189.595C18.4061 189.243 18.0609 188.733 17.8223 188.065C17.5837 187.395 17.4643 186.585 17.4643 185.636C17.4643 184.693 17.5837 183.888 17.8223 183.22C18.0638 182.55 18.4104 182.038 18.8621 181.686C19.3166 181.331 19.8621 181.153 20.4984 181.153C21.1348 181.153 21.6788 181.331 22.1305 181.686C22.5851 182.038 22.9317 182.55 23.1703 183.22C23.4118 183.888 23.5325 184.693 23.5325 185.636C23.5325 186.585 23.4132 187.395 23.1746 188.065C22.9359 188.733 22.5908 189.243 22.1391 189.595C21.6874 189.945 21.1405 190.119 20.4984 190.119ZM20.4984 189.182C21.1348 189.182 21.6291 188.875 21.9814 188.261C22.3337 187.648 22.5098 186.773 22.5098 185.636C22.5098 184.881 22.4288 184.237 22.2669 183.706C22.1078 183.175 21.8777 182.77 21.5766 182.491C21.2783 182.213 20.9189 182.074 20.4984 182.074C19.8678 182.074 19.3749 182.385 19.0197 183.007C18.6646 183.626 18.4871 184.503 18.4871 185.636C18.4871 186.392 18.5666 187.034 18.7257 187.562C18.8848 188.091 19.1135 188.493 19.4118 188.768C19.7129 189.044 20.0751 189.182 20.4984 189.182ZM28.1984 190.119C27.5564 190.119 27.0095 189.945 26.5578 189.595C26.1061 189.243 25.7609 188.733 25.5223 188.065C25.2837 187.395 25.1643 186.585 25.1643 185.636C25.1643 184.693 25.2837 183.888 25.5223 183.22C25.7638 182.55 26.1104 182.038 26.5621 181.686C27.0166 181.331 27.5621 181.153 28.1984 181.153C28.8348 181.153 29.3788 181.331 29.8305 181.686C30.2851 182.038 30.6317 182.55 30.8703 183.22C31.1118 183.888 31.2325 184.693 31.2325 185.636C31.2325 186.585 31.1132 187.395 30.8746 188.065C30.6359 188.733 30.2908 189.243 29.8391 189.595C29.3874 189.945 28.8405 190.119 28.1984 190.119ZM28.1984 189.182C28.8348 189.182 29.3291 188.875 29.6814 188.261C30.0337 187.648 30.2098 186.773 30.2098 185.636C30.2098 184.881 30.1288 184.237 29.9669 183.706C29.8078 183.175 29.5777 182.77 29.2766 182.491C28.9783 182.213 28.6189 182.074 28.1984 182.074C27.5678 182.074 27.0749 182.385 26.7197 183.007C26.3646 183.626 26.1871 184.503 26.1871 185.636C26.1871 186.392 26.2666 187.034 26.4257 187.562C26.5848 188.091 26.8135 188.493 27.1118 188.768C27.4129 189.044 27.7751 189.182 28.1984 189.182Z" fill="#7780A1"/>
<path d="M119.31 181.273V190H118.253V182.381H118.202L116.071 183.795V182.722L118.253 181.273H119.31ZM124.969 190.119C124.406 190.119 123.905 190.023 123.464 189.83C123.027 189.636 122.679 189.368 122.42 189.024C122.165 188.678 122.025 188.276 122.003 187.818H123.077C123.099 188.099 123.196 188.342 123.366 188.547C123.537 188.749 123.76 188.905 124.035 189.016C124.311 189.126 124.616 189.182 124.952 189.182C125.327 189.182 125.659 189.116 125.949 188.986C126.239 188.855 126.466 188.673 126.631 188.44C126.795 188.207 126.878 187.938 126.878 187.631C126.878 187.31 126.798 187.027 126.639 186.783C126.48 186.536 126.247 186.342 125.94 186.203C125.633 186.064 125.258 185.994 124.815 185.994H124.116V185.057H124.815C125.162 185.057 125.466 184.994 125.727 184.869C125.991 184.744 126.197 184.568 126.345 184.341C126.496 184.114 126.571 183.847 126.571 183.54C126.571 183.244 126.506 182.987 126.375 182.768C126.244 182.55 126.06 182.379 125.821 182.257C125.585 182.135 125.307 182.074 124.986 182.074C124.685 182.074 124.4 182.129 124.133 182.24C123.869 182.348 123.653 182.506 123.486 182.713C123.318 182.918 123.227 183.165 123.213 183.455H122.19C122.207 182.997 122.345 182.597 122.604 182.253C122.862 181.906 123.2 181.636 123.618 181.443C124.038 181.25 124.5 181.153 125.003 181.153C125.543 181.153 126.006 181.263 126.392 181.482C126.778 181.697 127.075 181.983 127.283 182.338C127.49 182.693 127.594 183.077 127.594 183.489C127.594 183.98 127.464 184.399 127.206 184.746C126.95 185.092 126.602 185.332 126.162 185.466V185.534C126.713 185.625 127.143 185.859 127.453 186.237C127.763 186.612 127.918 187.077 127.918 187.631C127.918 188.105 127.788 188.531 127.53 188.909C127.274 189.284 126.925 189.58 126.481 189.795C126.038 190.011 125.534 190.119 124.969 190.119ZM130.61 188.884C130.4 188.884 130.22 188.808 130.069 188.658C129.919 188.507 129.843 188.327 129.843 188.116C129.843 187.906 129.919 187.726 130.069 187.575C130.22 187.425 130.4 187.349 130.61 187.349C130.821 187.349 131.001 187.425 131.152 187.575C131.302 187.726 131.377 187.906 131.377 188.116C131.377 188.256 131.342 188.384 131.271 188.5C131.203 188.616 131.11 188.71 130.994 188.781C130.88 188.849 130.752 188.884 130.61 188.884ZM130.61 184.469C130.4 184.469 130.22 184.393 130.069 184.243C129.919 184.092 129.843 183.912 129.843 183.702C129.843 183.491 129.919 183.311 130.069 183.161C130.22 183.01 130.4 182.935 130.61 182.935C130.821 182.935 131.001 183.01 131.152 183.161C131.302 183.311 131.377 183.491 131.377 183.702C131.377 183.841 131.342 183.969 131.271 184.085C131.203 184.202 131.11 184.295 130.994 184.366C130.88 184.435 130.752 184.469 130.61 184.469ZM136.212 190.119C135.57 190.119 135.023 189.945 134.571 189.595C134.119 189.243 133.774 188.733 133.536 188.065C133.297 187.395 133.178 186.585 133.178 185.636C133.178 184.693 133.297 183.888 133.536 183.22C133.777 182.55 134.124 182.038 134.575 181.686C135.03 181.331 135.575 181.153 136.212 181.153C136.848 181.153 137.392 181.331 137.844 181.686C138.298 182.038 138.645 182.55 138.884 183.22C139.125 183.888 139.246 184.693 139.246 185.636C139.246 186.585 139.126 187.395 138.888 188.065C138.649 188.733 138.304 189.243 137.852 189.595C137.401 189.945 136.854 190.119 136.212 190.119ZM136.212 189.182C136.848 189.182 137.342 188.875 137.695 188.261C138.047 187.648 138.223 186.773 138.223 185.636C138.223 184.881 138.142 184.237 137.98 183.706C137.821 183.175 137.591 182.77 137.29 182.491C136.992 182.213 136.632 182.074 136.212 182.074C135.581 182.074 135.088 182.385 134.733 183.007C134.378 183.626 134.2 184.503 134.2 185.636C134.2 186.392 134.28 187.034 134.439 187.562C134.598 188.091 134.827 188.493 135.125 188.768C135.426 189.044 135.788 189.182 136.212 189.182ZM143.912 190.119C143.27 190.119 142.723 189.945 142.271 189.595C141.819 189.243 141.474 188.733 141.236 188.065C140.997 187.395 140.878 186.585 140.878 185.636C140.878 184.693 140.997 183.888 141.236 183.22C141.477 182.55 141.824 182.038 142.275 181.686C142.73 181.331 143.275 181.153 143.912 181.153C144.548 181.153 145.092 181.331 145.544 181.686C145.998 182.038 146.345 182.55 146.584 183.22C146.825 183.888 146.946 184.693 146.946 185.636C146.946 186.585 146.826 187.395 146.588 188.065C146.349 188.733 146.004 189.243 145.552 189.595C145.101 189.945 144.554 190.119 143.912 190.119ZM143.912 189.182C144.548 189.182 145.042 188.875 145.395 188.261C145.747 187.648 145.923 186.773 145.923 185.636C145.923 184.881 145.842 184.237 145.68 183.706C145.521 183.175 145.291 182.77 144.99 182.491C144.692 182.213 144.332 182.074 143.912 182.074C143.281 182.074 142.788 182.385 142.433 183.007C142.078 183.626 141.9 184.503 141.9 185.636C141.9 186.392 141.98 187.034 142.139 187.562C142.298 188.091 142.527 188.493 142.825 188.768C143.126 189.044 143.488 189.182 143.912 189.182Z" fill="#7780A1"/>
<path d="M235.281 181.273V190H234.224V182.381H234.173L232.042 183.795V182.722L234.224 181.273H235.281ZM237.786 188.21V187.341L241.621 181.273H242.252V182.619H241.826L238.928 187.205V187.273H244.093V188.21H237.786ZM241.894 190V187.946V187.541V181.273H242.9V190H241.894ZM246.64 188.884C246.43 188.884 246.249 188.808 246.099 188.658C245.948 188.507 245.873 188.327 245.873 188.116C245.873 187.906 245.948 187.726 246.099 187.575C246.249 187.425 246.43 187.349 246.64 187.349C246.85 187.349 247.03 187.425 247.181 187.575C247.331 187.726 247.407 187.906 247.407 188.116C247.407 188.256 247.371 188.384 247.3 188.5C247.232 188.616 247.14 188.71 247.023 188.781C246.91 188.849 246.782 188.884 246.64 188.884ZM246.64 184.469C246.43 184.469 246.249 184.393 246.099 184.243C245.948 184.092 245.873 183.912 245.873 183.702C245.873 183.491 245.948 183.311 246.099 183.161C246.249 183.01 246.43 182.935 246.64 182.935C246.85 182.935 247.03 183.01 247.181 183.161C247.331 183.311 247.407 183.491 247.407 183.702C247.407 183.841 247.371 183.969 247.3 184.085C247.232 184.202 247.14 184.295 247.023 184.366C246.91 184.435 246.782 184.469 246.64 184.469ZM252.241 190.119C251.599 190.119 251.052 189.945 250.6 189.595C250.149 189.243 249.804 188.733 249.565 188.065C249.326 187.395 249.207 186.585 249.207 185.636C249.207 184.693 249.326 183.888 249.565 183.22C249.806 182.55 250.153 182.038 250.605 181.686C251.059 181.331 251.605 181.153 252.241 181.153C252.877 181.153 253.421 181.331 253.873 181.686C254.328 182.038 254.674 182.55 254.913 183.22C255.154 183.888 255.275 184.693 255.275 185.636C255.275 186.585 255.156 187.395 254.917 188.065C254.679 188.733 254.333 189.243 253.882 189.595C253.43 189.945 252.883 190.119 252.241 190.119ZM252.241 189.182C252.877 189.182 253.372 188.875 253.724 188.261C254.076 187.648 254.252 186.773 254.252 185.636C254.252 184.881 254.171 184.237 254.009 183.706C253.85 183.175 253.62 182.77 253.319 182.491C253.021 182.213 252.661 182.074 252.241 182.074C251.61 182.074 251.117 182.385 250.762 183.007C250.407 183.626 250.23 184.503 250.23 185.636C250.23 186.392 250.309 187.034 250.468 187.562C250.627 188.091 250.856 188.493 251.154 188.768C251.456 189.044 251.818 189.182 252.241 189.182ZM259.941 190.119C259.299 190.119 258.752 189.945 258.3 189.595C257.849 189.243 257.504 188.733 257.265 188.065C257.026 187.395 256.907 186.585 256.907 185.636C256.907 184.693 257.026 183.888 257.265 183.22C257.506 182.55 257.853 182.038 258.305 181.686C258.759 181.331 259.305 181.153 259.941 181.153C260.577 181.153 261.121 181.331 261.573 181.686C262.028 182.038 262.374 182.55 262.613 183.22C262.854 183.888 262.975 184.693 262.975 185.636C262.975 186.585 262.856 187.395 262.617 188.065C262.379 188.733 262.033 189.243 261.582 189.595C261.13 189.945 260.583 190.119 259.941 190.119ZM259.941 189.182C260.577 189.182 261.072 188.875 261.424 188.261C261.776 187.648 261.952 186.773 261.952 185.636C261.952 184.881 261.871 184.237 261.709 183.706C261.55 183.175 261.32 182.77 261.019 182.491C260.721 182.213 260.361 182.074 259.941 182.074C259.31 182.074 258.817 182.385 258.462 183.007C258.107 183.626 257.93 184.503 257.93 185.636C257.93 186.392 258.009 187.034 258.168 187.562C258.327 188.091 258.556 188.493 258.854 188.768C259.156 189.044 259.518 189.182 259.941 189.182Z" fill="#7780A1"/>
<path d="M350.98 181.273V190H349.923V182.381H349.872L347.741 183.795V182.722L349.923 181.273H350.98ZM356.417 190.119C355.917 190.119 355.467 190.02 355.066 189.821C354.666 189.622 354.345 189.349 354.103 189.003C353.862 188.656 353.73 188.261 353.707 187.818H354.73C354.769 188.213 354.948 188.54 355.266 188.798C355.587 189.054 355.971 189.182 356.417 189.182C356.775 189.182 357.093 189.098 357.372 188.93C357.653 188.763 357.873 188.533 358.032 188.24C358.194 187.945 358.275 187.611 358.275 187.239C358.275 186.858 358.191 186.518 358.024 186.22C357.859 185.919 357.631 185.682 357.342 185.509C357.052 185.335 356.721 185.247 356.349 185.244C356.082 185.241 355.808 185.283 355.526 185.368C355.245 185.45 355.014 185.557 354.832 185.688L353.843 185.568L354.372 181.273H358.906V182.21H355.258L354.951 184.784H355.002C355.181 184.642 355.406 184.524 355.676 184.43C355.945 184.337 356.227 184.29 356.519 184.29C357.053 184.29 357.529 184.418 357.947 184.673C358.367 184.926 358.697 185.273 358.935 185.713C359.177 186.153 359.298 186.656 359.298 187.222C359.298 187.778 359.173 188.276 358.923 188.713C358.676 189.148 358.335 189.491 357.9 189.744C357.465 189.994 356.971 190.119 356.417 190.119ZM361.941 188.884C361.73 188.884 361.55 188.808 361.399 188.658C361.249 188.507 361.173 188.327 361.173 188.116C361.173 187.906 361.249 187.726 361.399 187.575C361.55 187.425 361.73 187.349 361.941 187.349C362.151 187.349 362.331 187.425 362.482 187.575C362.632 187.726 362.708 187.906 362.708 188.116C362.708 188.256 362.672 188.384 362.601 188.5C362.533 188.616 362.441 188.71 362.324 188.781C362.21 188.849 362.083 188.884 361.941 188.884ZM361.941 184.469C361.73 184.469 361.55 184.393 361.399 184.243C361.249 184.092 361.173 183.912 361.173 183.702C361.173 183.491 361.249 183.311 361.399 183.161C361.55 183.01 361.73 182.935 361.941 182.935C362.151 182.935 362.331 183.01 362.482 183.161C362.632 183.311 362.708 183.491 362.708 183.702C362.708 183.841 362.672 183.969 362.601 184.085C362.533 184.202 362.441 184.295 362.324 184.366C362.21 184.435 362.083 184.469 361.941 184.469ZM367.542 190.119C366.9 190.119 366.353 189.945 365.901 189.595C365.449 189.243 365.104 188.733 364.866 188.065C364.627 187.395 364.508 186.585 364.508 185.636C364.508 184.693 364.627 183.888 364.866 183.22C365.107 182.55 365.454 182.038 365.905 181.686C366.36 181.331 366.905 181.153 367.542 181.153C368.178 181.153 368.722 181.331 369.174 181.686C369.628 182.038 369.975 182.55 370.214 183.22C370.455 183.888 370.576 184.693 370.576 185.636C370.576 186.585 370.457 187.395 370.218 188.065C369.979 188.733 369.634 189.243 369.182 189.595C368.731 189.945 368.184 190.119 367.542 190.119ZM367.542 189.182C368.178 189.182 368.672 188.875 369.025 188.261C369.377 187.648 369.553 186.773 369.553 185.636C369.553 184.881 369.472 184.237 369.31 183.706C369.151 183.175 368.921 182.77 368.62 182.491C368.322 182.213 367.962 182.074 367.542 182.074C366.911 182.074 366.418 182.385 366.063 183.007C365.708 183.626 365.53 184.503 365.53 185.636C365.53 186.392 365.61 187.034 365.769 187.562C365.928 188.091 366.157 188.493 366.455 188.768C366.756 189.044 367.119 189.182 367.542 189.182ZM375.242 190.119C374.6 190.119 374.053 189.945 373.601 189.595C373.149 189.243 372.804 188.733 372.566 188.065C372.327 187.395 372.208 186.585 372.208 185.636C372.208 184.693 372.327 183.888 372.566 183.22C372.807 182.55 373.154 182.038 373.605 181.686C374.06 181.331 374.605 181.153 375.242 181.153C375.878 181.153 376.422 181.331 376.874 181.686C377.328 182.038 377.675 182.55 377.914 183.22C378.155 183.888 378.276 184.693 378.276 185.636C378.276 186.585 378.157 187.395 377.918 188.065C377.679 188.733 377.334 189.243 376.882 189.595C376.431 189.945 375.884 190.119 375.242 190.119ZM375.242 189.182C375.878 189.182 376.372 188.875 376.725 188.261C377.077 187.648 377.253 186.773 377.253 185.636C377.253 184.881 377.172 184.237 377.01 183.706C376.851 183.175 376.621 182.77 376.32 182.491C376.022 182.213 375.662 182.074 375.242 182.074C374.611 182.074 374.118 182.385 373.763 183.007C373.408 183.626 373.23 184.503 373.23 185.636C373.23 186.392 373.31 187.034 373.469 187.562C373.628 188.091 373.857 188.493 374.155 188.768C374.456 189.044 374.819 189.182 375.242 189.182Z" fill="#7780A1"/>
<path d="M466.8 181.273V190H465.744V182.381H465.693L463.562 183.795V182.722L465.744 181.273H466.8ZM472.408 190.119C472.05 190.114 471.692 190.045 471.334 189.915C470.976 189.784 470.65 189.564 470.354 189.254C470.059 188.942 469.822 188.52 469.643 187.989C469.464 187.455 469.374 186.784 469.374 185.977C469.374 185.205 469.447 184.52 469.591 183.923C469.736 183.324 469.947 182.82 470.222 182.411C470.498 181.999 470.83 181.686 471.219 181.473C471.611 181.26 472.053 181.153 472.545 181.153C473.033 181.153 473.468 181.251 473.849 181.447C474.232 181.641 474.545 181.911 474.786 182.257C475.027 182.604 475.184 183.003 475.255 183.455H474.215C474.118 183.062 473.931 182.737 473.652 182.479C473.374 182.22 473.005 182.091 472.545 182.091C471.868 182.091 471.336 182.385 470.947 182.973C470.56 183.561 470.366 184.386 470.363 185.449H470.431C470.59 185.207 470.779 185.001 470.998 184.831C471.219 184.658 471.464 184.524 471.731 184.43C471.998 184.337 472.28 184.29 472.579 184.29C473.079 184.29 473.536 184.415 473.951 184.665C474.366 184.912 474.698 185.254 474.948 185.692C475.198 186.126 475.323 186.625 475.323 187.188C475.323 187.727 475.202 188.222 474.961 188.67C474.719 189.116 474.38 189.472 473.942 189.736C473.508 189.997 472.996 190.125 472.408 190.119ZM472.408 189.182C472.766 189.182 473.087 189.092 473.371 188.913C473.658 188.734 473.884 188.494 474.049 188.193C474.216 187.892 474.3 187.557 474.3 187.188C474.3 186.827 474.219 186.499 474.057 186.203C473.898 185.905 473.678 185.668 473.397 185.491C473.118 185.315 472.8 185.227 472.442 185.227C472.172 185.227 471.921 185.281 471.688 185.389C471.455 185.494 471.25 185.639 471.074 185.824C470.901 186.009 470.765 186.22 470.665 186.459C470.566 186.695 470.516 186.943 470.516 187.205C470.516 187.551 470.597 187.875 470.759 188.176C470.924 188.477 471.148 188.72 471.432 188.905C471.719 189.089 472.045 189.182 472.408 189.182ZM477.949 188.884C477.738 188.884 477.558 188.808 477.408 188.658C477.257 188.507 477.182 188.327 477.182 188.116C477.182 187.906 477.257 187.726 477.408 187.575C477.558 187.425 477.738 187.349 477.949 187.349C478.159 187.349 478.339 187.425 478.49 187.575C478.64 187.726 478.716 187.906 478.716 188.116C478.716 188.256 478.68 188.384 478.609 188.5C478.541 188.616 478.449 188.71 478.332 188.781C478.219 188.849 478.091 188.884 477.949 188.884ZM477.949 184.469C477.738 184.469 477.558 184.393 477.408 184.243C477.257 184.092 477.182 183.912 477.182 183.702C477.182 183.491 477.257 183.311 477.408 183.161C477.558 183.01 477.738 182.935 477.949 182.935C478.159 182.935 478.339 183.01 478.49 183.161C478.64 183.311 478.716 183.491 478.716 183.702C478.716 183.841 478.68 183.969 478.609 184.085C478.541 184.202 478.449 184.295 478.332 184.366C478.219 184.435 478.091 184.469 477.949 184.469ZM483.55 190.119C482.908 190.119 482.361 189.945 481.909 189.595C481.458 189.243 481.113 188.733 480.874 188.065C480.635 187.395 480.516 186.585 480.516 185.636C480.516 184.693 480.635 183.888 480.874 183.22C481.115 182.55 481.462 182.038 481.914 181.686C482.368 181.331 482.914 181.153 483.55 181.153C484.186 181.153 484.73 181.331 485.182 181.686C485.637 182.038 485.983 182.55 486.222 183.22C486.463 183.888 486.584 184.693 486.584 185.636C486.584 186.585 486.465 187.395 486.226 188.065C485.988 188.733 485.642 189.243 485.191 189.595C484.739 189.945 484.192 190.119 483.55 190.119ZM483.55 189.182C484.186 189.182 484.681 188.875 485.033 188.261C485.385 187.648 485.561 186.773 485.561 185.636C485.561 184.881 485.48 184.237 485.318 183.706C485.159 183.175 484.929 182.77 484.628 182.491C484.33 182.213 483.97 182.074 483.55 182.074C482.919 182.074 482.426 182.385 482.071 183.007C481.716 183.626 481.539 184.503 481.539 185.636C481.539 186.392 481.618 187.034 481.777 187.562C481.936 188.091 482.165 188.493 482.463 188.768C482.764 189.044 483.127 189.182 483.55 189.182ZM491.25 190.119C490.608 190.119 490.061 189.945 489.609 189.595C489.158 189.243 488.813 188.733 488.574 188.065C488.335 187.395 488.216 186.585 488.216 185.636C488.216 184.693 488.335 183.888 488.574 183.22C488.815 182.55 489.162 182.038 489.614 181.686C490.068 181.331 490.614 181.153 491.25 181.153C491.886 181.153 492.43 181.331 492.882 181.686C493.337 182.038 493.683 182.55 493.922 183.22C494.163 183.888 494.284 184.693 494.284 185.636C494.284 186.585 494.165 187.395 493.926 188.065C493.688 188.733 493.342 189.243 492.891 189.595C492.439 189.945 491.892 190.119 491.25 190.119ZM491.25 189.182C491.886 189.182 492.381 188.875 492.733 188.261C493.085 187.648 493.261 186.773 493.261 185.636C493.261 184.881 493.18 184.237 493.018 183.706C492.859 183.175 492.629 182.77 492.328 182.491C492.03 182.213 491.67 182.074 491.25 182.074C490.619 182.074 490.126 182.385 489.771 183.007C489.416 183.626 489.239 184.503 489.239 185.636C489.239 186.392 489.318 187.034 489.477 187.562C489.636 188.091 489.865 188.493 490.163 188.768C490.464 189.044 490.827 189.182 491.25 189.182Z" fill="#7780A1"/>
<line x1="17" y1="46" x2="17" y2="160" stroke="#262840" stroke-width="2" stroke-linecap="round" stroke-dasharray="5 5"/>
<line x1="132" y1="46" x2="132" y2="160" stroke="#262840" stroke-width="2" stroke-linecap="round" stroke-dasharray="5 5"/>
<line x1="248" y1="46" x2="248" y2="160" stroke="#262840" stroke-width="2" stroke-linecap="round" stroke-dasharray="5 5"/>
<line x1="364" y1="46" x2="364" y2="160" stroke="#262840" stroke-width="2" stroke-linecap="round" stroke-dasharray="5 5"/>
<line x1="480" y1="46" x2="480" y2="160" stroke="#262840" stroke-width="2" stroke-linecap="round" stroke-dasharray="5 5"/>
<path d="M59.8211 142H0V161H480.5V68H376.22C368.162 68 360.192 69.6791 352.819 72.9303L316.181 89.0857C308.808 92.3369 300.838 94.016 292.78 94.016L257.658 94.016C251.918 94.016 246.209 94.8681 240.719 96.5445L198.281 109.503C192.791 111.18 187.082 112.032 181.342 112.032L147.179 112.032C138.183 112.032 129.31 114.125 121.263 118.144L85.7374 135.888C77.6895 139.907 68.817 142 59.8211 142Z" fill="url(#paint0_linear_4_4188)" fill-opacity="0.1"/>
<path d="M0 142H59.8211C68.817 142 77.6895 139.907 85.7374 135.888L121.263 118.144C129.31 114.125 138.183 112.032 147.179 112.032L181.342 112.032C187.082 112.032 192.791 111.18 198.281 109.503L240.719 96.5445C246.209 94.8681 251.918 94.016 257.658 94.016L292.78 94.016C300.838 94.016 308.808 92.3369 316.181 89.0857L352.819 72.9303C360.192 69.6791 368.162 68 376.22 68L480.5 68" stroke="url(#paint1_linear_4_4188)" stroke-width="2"/>
<g filter="url(#filter0_d_4_4188)">
<circle cx="364" cy="69" r="6" fill="#060714"/>
<circle cx="364" cy="69" r="4.5" stroke="#76DECC" stroke-width="3"/>
</g>
<rect x="324" y="90" width="79" height="28" rx="4" fill="#7780A1"/>
<path d="M335.354 108V106.18C335.354 105.781 335.415 105.435 335.536 105.14C335.666 104.845 335.874 104.585 336.16 104.36C336.455 104.126 336.841 103.905 337.317 103.697L338.929 102.982C339.328 102.8 339.631 102.579 339.839 102.319C340.056 102.05 340.164 101.708 340.164 101.292C340.164 100.833 340.026 100.469 339.748 100.2C339.48 99.9227 339.094 99.784 338.591 99.784C338.089 99.784 337.699 99.9227 337.421 100.2C337.153 100.477 337.018 100.863 337.018 101.357H335.237C335.237 100.768 335.363 100.239 335.614 99.771C335.866 99.2943 336.238 98.9217 336.732 98.653C337.226 98.3757 337.846 98.237 338.591 98.237C339.337 98.237 339.956 98.3713 340.45 98.64C340.944 98.9087 341.317 99.2683 341.568 99.719C341.82 100.161 341.945 100.655 341.945 101.201V101.37C341.945 102.081 341.746 102.674 341.347 103.151C340.949 103.619 340.364 104.026 339.592 104.373L337.98 105.088C337.677 105.218 337.465 105.357 337.343 105.504C337.222 105.643 337.161 105.833 337.161 106.076V106.908L336.719 106.427H341.984V108H335.354ZM343.601 108V105.92H345.629V108H343.601ZM350.75 108.247C350.004 108.247 349.363 108.1 348.826 107.805C348.297 107.51 347.89 107.12 347.604 106.635C347.326 106.141 347.188 105.604 347.188 105.023H348.969C348.969 105.352 349.042 105.643 349.19 105.894C349.346 106.145 349.558 106.345 349.827 106.492C350.095 106.631 350.407 106.7 350.763 106.7C351.135 106.7 351.456 106.622 351.725 106.466C351.993 106.31 352.197 106.098 352.336 105.829C352.483 105.56 352.557 105.253 352.557 104.906C352.557 104.568 352.483 104.265 352.336 103.996C352.197 103.719 351.993 103.502 351.725 103.346C351.465 103.181 351.148 103.099 350.776 103.099C350.464 103.099 350.169 103.16 349.892 103.281C349.614 103.402 349.398 103.563 349.242 103.762H347.539L348.02 98.51H353.519V100.083H348.826L349.476 99.576L349.164 102.852L348.722 102.722C348.973 102.436 349.281 102.198 349.645 102.007C350.009 101.816 350.468 101.721 351.023 101.721C351.725 101.721 352.323 101.864 352.817 102.15C353.311 102.436 353.688 102.817 353.948 103.294C354.208 103.762 354.338 104.273 354.338 104.828V104.997C354.338 105.56 354.199 106.089 353.922 106.583C353.644 107.077 353.237 107.48 352.7 107.792C352.171 108.095 351.521 108.247 350.75 108.247ZM359.227 108.247C358.482 108.247 357.84 108.1 357.303 107.805C356.774 107.51 356.367 107.12 356.081 106.635C355.804 106.141 355.665 105.604 355.665 105.023H357.446C357.446 105.352 357.52 105.643 357.667 105.894C357.823 106.145 358.035 106.345 358.304 106.492C358.573 106.631 358.885 106.7 359.24 106.7C359.613 106.7 359.933 106.622 360.202 106.466C360.471 106.31 360.674 106.098 360.813 105.829C360.96 105.56 361.034 105.253 361.034 104.906C361.034 104.568 360.96 104.265 360.813 103.996C360.674 103.719 360.471 103.502 360.202 103.346C359.942 103.181 359.626 103.099 359.253 103.099C358.941 103.099 358.646 103.16 358.369 103.281C358.092 103.402 357.875 103.563 357.719 103.762H356.016L356.497 98.51H361.996V100.083H357.303L357.953 99.576L357.641 102.852L357.199 102.722C357.45 102.436 357.758 102.198 358.122 102.007C358.486 101.816 358.945 101.721 359.5 101.721C360.202 101.721 360.8 101.864 361.294 102.15C361.788 102.436 362.165 102.817 362.425 103.294C362.685 103.762 362.815 104.273 362.815 104.828V104.997C362.815 105.56 362.676 106.089 362.399 106.583C362.122 107.077 361.714 107.48 361.177 107.792C360.648 108.095 359.998 108.247 359.227 108.247ZM367.681 108V98.51H369.488V108H367.681ZM369.228 108V106.44H373.531V108H369.228ZM369.228 103.957V102.397H373.193V103.957H369.228ZM369.228 100.07V98.51H373.427V100.07H369.228ZM377.497 108V99.875H379.343V108H377.497ZM374.754 100.135V98.51H382.086V100.135H374.754ZM389.987 108V98.51H391.833V108H389.987ZM383.76 108V98.51H385.606V108H383.76ZM385.268 104.061V102.436H390.325V104.061H385.268Z" fill="white"/>
<path d="M360.828 88L364 84.8284L367.172 88H360.828Z" stroke="#7780A1" stroke-width="4"/>
<line x1="2" y1="225" x2="494" y2="225" stroke="#262840" stroke-width="4" stroke-linecap="round"/>
<line opacity="0.5" x1="349" y1="225" x2="494" y2="225" stroke="#7780A1" stroke-width="4" stroke-linecap="round"/>
<defs>
<filter id="filter0_d_4_4188" x="343" y="48" width="42" height="42" filterUnits="userSpaceOnUse" color-interpolation-filters="sRGB">
<feFlood flood-opacity="0" result="BackgroundImageFix"/>
<feColorMatrix in="SourceAlpha" type="matrix" values="0 0 0 0 0 0 0 0 0 0 0 0 0 0 0 0 0 0 127 0" result="hardAlpha"/>
<feOffset/>
<feGaussianBlur stdDeviation="7.5"/>
<feComposite in2="hardAlpha" operator="out"/>
<feColorMatrix type="matrix" values="0 0 0 0 0.462745 0 0 0 0 0.870588 0 0 0 0 0.8 0 0 0 0.5 0"/>
<feBlend mode="normal" in2="BackgroundImageFix" result="effect1_dropShadow_4_4188"/>
<feBlend mode="normal" in="SourceGraphic" in2="effect1_dropShadow_4_4188" result="shape"/>
</filter>
<linearGradient id="paint0_linear_4_4188" x1="240.25" y1="68" x2="240.25" y2="169" gradientUnits="userSpaceOnUse">
<stop stop-color="#76DECC"/>
<stop offset="1" stop-color="#76DECC" stop-opacity="0"/>
</linearGradient>
<linearGradient id="paint1_linear_4_4188" x1="37" y1="142" x2="481" y2="142" gradientUnits="userSpaceOnUse">
<stop offset="0.736486" stop-color="#76DECC"/>
<stop offset="1" stop-color="#76DECC" stop-opacity="0"/>
</linearGradient>
</defs>
</svg>
