<svg width="837" height="234" viewBox="0 0 837 234" fill="none" xmlns="http://www.w3.org/2000/svg">
<path d="M127 185.2C123.822 186.207 120.437 186.75 116.925 186.75C98.5201 186.75 83.6001 171.83 83.6001 153.425C83.6001 151.578 83.7504 149.765 84.0394 148H104.745C104.006 149.657 103.595 151.493 103.595 153.425C103.595 160.787 109.563 166.755 116.925 166.755C120.949 166.755 124.556 164.972 127 162.153V185.2Z" fill="#2A27C9"/>
<path d="M68.27 210C69.8121 196.05 81.6389 185.2 95.9998 185.2C110.36 185.2 122.187 196.05 123.729 210H103.777C102.545 206.912 99.5271 204.73 95.9998 204.73C92.4723 204.73 89.4546 206.912 88.2226 210H68.27Z" fill="#EA6CBC"/>
<path d="M2.63345 101L32.5135 13.4H60.3535L91.0735 101H73.5535L47.5135 25.04L53.6335 27.68H38.6335L44.8735 25.04L19.6735 101H2.63345ZM23.5134 77.72L28.9135 63.32H64.4335L69.7135 77.72H23.5134ZM129.064 101V35.84H142.264V63.8H141.064C141.064 57.16 141.944 51.64 143.704 47.24C145.464 42.76 148.064 39.4 151.504 37.16C155.024 34.92 159.384 33.8 164.584 33.8H165.304C173.064 33.8 178.944 36.32 182.944 41.36C186.944 46.32 188.944 53.76 188.944 63.68V101H172.264V62.24C172.264 58.24 171.104 55 168.784 52.52C166.544 50.04 163.424 48.8 159.424 48.8C155.344 48.8 152.024 50.08 149.464 52.64C146.984 55.12 145.744 58.48 145.744 62.72V101H129.064ZM236.237 103.28C230.637 103.28 225.717 102.32 221.477 100.4C217.317 98.48 213.837 95.92 211.037 92.72C208.317 89.44 206.237 85.8 204.797 81.8C203.437 77.8 202.757 73.72 202.757 69.56V67.28C202.757 62.96 203.437 58.8 204.797 54.8C206.237 50.72 208.317 47.12 211.037 44C213.837 40.8 217.277 38.28 221.357 36.44C225.437 34.52 230.157 33.56 235.517 33.56C242.557 33.56 248.437 35.12 253.157 38.24C257.957 41.28 261.557 45.32 263.957 50.36C266.357 55.32 267.557 60.68 267.557 66.44V72.44H209.837V62.24H257.117L251.957 67.28C251.957 63.12 251.357 59.56 250.157 56.6C248.957 53.64 247.117 51.36 244.637 49.76C242.237 48.16 239.197 47.36 235.517 47.36C231.837 47.36 228.717 48.2 226.157 49.88C223.597 51.56 221.637 54 220.277 57.2C218.997 60.32 218.357 64.08 218.357 68.48C218.357 72.56 218.997 76.2 220.277 79.4C221.557 82.52 223.517 85 226.157 86.84C228.797 88.6 232.157 89.48 236.237 89.48C240.317 89.48 243.637 88.68 246.197 87.08C248.757 85.4 250.397 83.36 251.117 80.96H266.477C265.517 85.44 263.677 89.36 260.957 92.72C258.237 96.08 254.757 98.68 250.517 100.52C246.357 102.36 241.597 103.28 236.237 103.28ZM303.425 101L315.785 38H334.985L349.265 101H336.065L321.545 38.36H328.505L315.665 101H303.425ZM298.505 101L298.385 87.32H311.705V101H298.505ZM291.785 101L274.025 35.84H290.225L307.145 101H291.785ZM340.265 101V87.32H353.585L353.465 101H340.265ZM345.545 101L360.545 35.84H375.665L359.945 101H345.545ZM416.419 101V13.4H444.379L481.219 86.84H485.179L482.779 89V13.4H498.859V101H470.779L433.939 27.56H429.859L432.259 25.4V101H416.419ZM520.681 101V13.4H537.721V101H520.681ZM535.321 64.52V50.12L570.361 50V64.4L535.321 64.52ZM535.321 27.8V13.4H572.041V27.8H535.321ZM606.364 101V26H623.404V101H606.364ZM581.044 28.4V13.4H648.724V28.4H581.044Z" fill="white"/>
<path d="M156.81 210V122.4H173.49V210H156.81ZM171.09 210V195.6H210.81V210H171.09ZM171.09 172.68V158.28H207.69V172.68H171.09ZM171.09 136.8V122.4H209.85V136.8H171.09ZM219.735 210L240.975 175.2L240.615 177.96L220.575 144.84H238.695L251.775 167.76H253.575L265.935 144.84H282.975L264.015 177.84L264.375 175.44L286.815 210H268.695L253.215 185.4H251.415L236.775 210H219.735ZM297.804 234V144.84H311.004V172.92L308.964 172.8C309.284 166.16 310.644 160.6 313.044 156.12C315.524 151.64 318.804 148.32 322.884 146.16C326.964 143.92 331.524 142.8 336.564 142.8C341.204 142.8 345.364 143.64 349.044 145.32C352.804 147 356.004 149.36 358.644 152.4C361.364 155.44 363.444 159 364.884 163.08C366.324 167.08 367.044 171.4 367.044 176.04V178.56C367.044 183.28 366.324 187.68 364.884 191.76C363.524 195.76 361.484 199.32 358.764 202.44C356.124 205.48 352.924 207.88 349.164 209.64C345.404 211.32 341.204 212.16 336.564 212.16C331.684 212.16 327.204 211.16 323.124 209.16C319.124 207.08 315.884 203.92 313.404 199.68C310.924 195.36 309.524 189.8 309.204 183L314.484 191.04V234H297.804ZM332.364 198.12C335.964 198.12 339.084 197.24 341.724 195.48C344.444 193.72 346.564 191.28 348.084 188.16C349.604 184.96 350.364 181.36 350.364 177.36C350.364 173.2 349.604 169.6 348.084 166.56C346.564 163.52 344.444 161.16 341.724 159.48C339.084 157.72 335.964 156.84 332.364 156.84C329.084 156.84 326.044 157.56 323.244 159C320.524 160.44 318.284 162.56 316.524 165.36C314.844 168.16 314.004 171.52 314.004 175.44V180.24C314.004 184 314.884 187.2 316.644 189.84C318.404 192.48 320.684 194.52 323.484 195.96C326.284 197.4 329.244 198.12 332.364 198.12ZM411.07 212.28C405.47 212.28 400.55 211.32 396.31 209.4C392.15 207.48 388.67 204.92 385.87 201.72C383.15 198.44 381.07 194.8 379.63 190.8C378.27 186.8 377.59 182.72 377.59 178.56V176.28C377.59 171.96 378.27 167.8 379.63 163.8C381.07 159.72 383.15 156.12 385.87 153C388.67 149.8 392.11 147.28 396.19 145.44C400.27 143.52 404.99 142.56 410.35 142.56C417.39 142.56 423.27 144.12 427.99 147.24C432.79 150.28 436.39 154.32 438.79 159.36C441.19 164.32 442.39 169.68 442.39 175.44V181.44H384.67V171.24H431.95L426.79 176.28C426.79 172.12 426.19 168.56 424.99 165.6C423.79 162.64 421.95 160.36 419.47 158.76C417.07 157.16 414.03 156.36 410.35 156.36C406.67 156.36 403.55 157.2 400.99 158.88C398.43 160.56 396.47 163 395.11 166.2C393.83 169.32 393.19 173.08 393.19 177.48C393.19 181.56 393.83 185.2 395.11 188.4C396.39 191.52 398.35 194 400.99 195.84C403.63 197.6 406.99 198.48 411.07 198.48C415.15 198.48 418.47 197.68 421.03 196.08C423.59 194.4 425.23 192.36 425.95 189.96H441.31C440.35 194.44 438.51 198.36 435.79 201.72C433.07 205.08 429.59 207.68 425.35 209.52C421.19 211.36 416.43 212.28 411.07 212.28ZM456.525 210V144.84H469.725V172.44H469.365C469.365 163.08 471.365 156 475.365 151.2C479.365 146.4 485.245 144 493.005 144H495.405V158.52H490.845C485.245 158.52 480.885 160.04 477.765 163.08C474.725 166.04 473.205 170.36 473.205 176.04V210H456.525ZM509.884 210V144.84H526.564V210H509.884ZM500.764 157.32V144.84H526.564V157.32H500.764ZM516.004 137.04C512.724 137.04 510.284 136.2 508.684 134.52C507.164 132.76 506.404 130.56 506.404 127.92C506.404 125.28 507.164 123.12 508.684 121.44C510.284 119.76 512.724 118.92 516.004 118.92C519.284 118.92 521.684 119.76 523.204 121.44C524.724 123.12 525.484 125.28 525.484 127.92C525.484 130.56 524.724 132.76 523.204 134.52C521.684 136.2 519.284 137.04 516.004 137.04ZM575.147 212.28C569.547 212.28 564.627 211.32 560.387 209.4C556.227 207.48 552.747 204.92 549.947 201.72C547.227 198.44 545.147 194.8 543.707 190.8C542.347 186.8 541.667 182.72 541.667 178.56V176.28C541.667 171.96 542.347 167.8 543.707 163.8C545.147 159.72 547.227 156.12 549.947 153C552.747 149.8 556.187 147.28 560.267 145.44C564.347 143.52 569.067 142.56 574.427 142.56C581.467 142.56 587.347 144.12 592.067 147.24C596.867 150.28 600.467 154.32 602.867 159.36C605.267 164.32 606.467 169.68 606.467 175.44V181.44H548.747V171.24H596.027L590.867 176.28C590.867 172.12 590.267 168.56 589.067 165.6C587.867 162.64 586.027 160.36 583.547 158.76C581.147 157.16 578.107 156.36 574.427 156.36C570.747 156.36 567.627 157.2 565.067 158.88C562.507 160.56 560.547 163 559.187 166.2C557.907 169.32 557.267 173.08 557.267 177.48C557.267 181.56 557.907 185.2 559.187 188.4C560.467 191.52 562.427 194 565.067 195.84C567.707 197.6 571.067 198.48 575.147 198.48C579.227 198.48 582.547 197.68 585.107 196.08C587.667 194.4 589.307 192.36 590.027 189.96H605.387C604.427 194.44 602.587 198.36 599.867 201.72C597.147 205.08 593.667 207.68 589.427 209.52C585.267 211.36 580.507 212.28 575.147 212.28ZM620.601 210V144.84H633.801V172.8H632.601C632.601 166.16 633.481 160.64 635.241 156.24C637.001 151.76 639.601 148.4 643.041 146.16C646.561 143.92 650.921 142.8 656.121 142.8H656.841C664.601 142.8 670.481 145.32 674.481 150.36C678.481 155.32 680.481 162.76 680.481 172.68V210H663.801V171.24C663.801 167.24 662.641 164 660.321 161.52C658.081 159.04 654.961 157.8 650.961 157.8C646.881 157.8 643.561 159.08 641.001 161.64C638.521 164.12 637.281 167.48 637.281 171.72V210H620.601ZM727.534 212.28C721.854 212.28 716.934 211.32 712.774 209.4C708.694 207.48 705.254 204.92 702.454 201.72C699.734 198.52 697.694 194.92 696.334 190.92C694.974 186.92 694.294 182.84 694.294 178.68V176.4C694.294 172 694.974 167.8 696.334 163.8C697.774 159.72 699.894 156.12 702.694 153C705.494 149.8 708.934 147.28 713.014 145.44C717.174 143.52 721.974 142.56 727.414 142.56C733.094 142.56 738.174 143.68 742.654 145.92C747.134 148.08 750.694 151.12 753.334 155.04C756.054 158.96 757.574 163.52 757.894 168.72H741.694C741.294 165.36 739.854 162.56 737.374 160.32C734.974 158.08 731.654 156.96 727.414 156.96C723.734 156.96 720.654 157.84 718.174 159.6C715.774 161.36 713.974 163.8 712.774 166.92C711.574 169.96 710.974 173.48 710.974 177.48C710.974 181.32 711.534 184.8 712.654 187.92C713.854 191.04 715.654 193.48 718.054 195.24C720.534 197 723.694 197.88 727.534 197.88C730.414 197.88 732.894 197.36 734.974 196.32C737.054 195.28 738.694 193.84 739.894 192C741.174 190.16 741.974 188.08 742.294 185.76H758.494C758.174 191.04 756.614 195.68 753.814 199.68C751.094 203.6 747.454 206.68 742.894 208.92C738.414 211.16 733.294 212.28 727.534 212.28ZM801.216 212.28C795.616 212.28 790.696 211.32 786.456 209.4C782.296 207.48 778.816 204.92 776.016 201.72C773.296 198.44 771.216 194.8 769.776 190.8C768.416 186.8 767.736 182.72 767.736 178.56V176.28C767.736 171.96 768.416 167.8 769.776 163.8C771.216 159.72 773.296 156.12 776.016 153C778.816 149.8 782.256 147.28 786.336 145.44C790.416 143.52 795.136 142.56 800.496 142.56C807.536 142.56 813.416 144.12 818.136 147.24C822.936 150.28 826.536 154.32 828.936 159.36C831.336 164.32 832.536 169.68 832.536 175.44V181.44H774.816V171.24H822.096L816.936 176.28C816.936 172.12 816.336 168.56 815.136 165.6C813.936 162.64 812.096 160.36 809.616 158.76C807.216 157.16 804.176 156.36 800.496 156.36C796.816 156.36 793.696 157.2 791.136 158.88C788.576 160.56 786.616 163 785.256 166.2C783.976 169.32 783.336 173.08 783.336 177.48C783.336 181.56 783.976 185.2 785.256 188.4C786.536 191.52 788.496 194 791.136 195.84C793.776 197.6 797.136 198.48 801.216 198.48C805.296 198.48 808.616 197.68 811.176 196.08C813.736 194.4 815.376 192.36 816.096 189.96H831.456C830.496 194.44 828.656 198.36 825.936 201.72C823.216 205.08 819.736 207.68 815.496 209.52C811.336 211.36 806.576 212.28 801.216 212.28Z" fill="white"/>
<path d="M699.264 14V40.3517C691.518 41.9022 685.749 48.9504 685.749 57.2911C685.749 65.6315 691.518 72.6795 699.264 74.23V100.582C699.264 100.582 699.264 100.582 699.264 100.582V74.23C691.518 72.6795 685.749 65.6315 685.749 57.2911C685.749 48.9504 691.518 41.9022 699.264 40.3517V14C699.264 14 699.264 14 699.264 14Z" fill="#76DECC"/>
<path d="M662.642 57.2911C662.642 78.4418 677.83 95.7093 697.264 98.3563V75.7927C689.382 73.4538 683.749 65.9724 683.749 57.2911C683.749 48.6095 689.382 41.128 697.264 38.7891V16.2257C677.83 18.8727 662.642 36.14 662.642 57.2911Z" fill="#76DECC"/>
</svg>
